<svg enable-background="new 0 0 198.3 43.5" viewBox="0 0 198.3 43.5" xmlns="http://www.w3.org/2000/svg"><path d="M37 18.5C37 28.7173 28.7173 37 18.5 37C8.28273 37 0 28.7173 0 18.5C0 8.28273 8.28273 0 18.5 0C28.7173 0 37 8.28273 37 18.5Z" fill="white"/>
<path d="M19.1123 8.73489L12.0539 8.69277L16.2382 12.7361C17.4216 12.635 18.8164 13.1993 19.2813 13.6205C20.5324 14.2944 20.6338 15.8949 20.3802 16.4845C20.1266 17.5374 18.3515 18.5483 17.2103 18.6325H11.8848L19.5349 28.488H25.1562L20.4225 22.2967C22.4512 21.665 23.7547 19.9915 24.1419 19.3485C24.5223 18.7167 25.1562 17.3269 25.1562 15.8527C25.1562 14.6393 24.8604 13.5222 24.6913 13.1151C23.9305 10.8408 21.6059 8.81912 19.1123 8.73489Z" fill="url(#paint0_radial_25_17)"/>
<path d="M11.8848 28.5301V23.5181L15.9846 28.5301H11.8848Z" fill="url(#paint1_radial_25_17)"/>
<path d="M28.0303 27.3508C28.0303 27.9789 27.5194 28.488 26.8891 28.488C26.2589 28.488 25.748 27.9789 25.748 27.3508C25.748 26.7228 26.2589 26.2137 26.8891 26.2137C27.5194 26.2137 28.0303 26.7228 28.0303 27.3508Z" fill="url(#paint2_radial_25_17)"/>
<path d="M49.16 11.2C50.712 11.2 51.976 11.352 52.952 11.656C53.928 11.96 54.64 12.472 55.088 13.192C55.552 13.896 55.784 14.896 55.784 16.192C55.784 16.896 55.68 17.536 55.472 18.112C55.28 18.688 54.944 19.16 54.464 19.528C53.984 19.88 53.328 20.104 52.496 20.2V20.344C52.8 20.376 53.12 20.472 53.456 20.632C53.808 20.792 54.128 21.056 54.416 21.424C54.72 21.776 54.936 22.264 55.064 22.888L56.432 28H51.704L50.528 23.032C50.416 22.52 50.24 22.184 50 22.024C49.76 21.848 49.408 21.76 48.944 21.76C47.792 21.744 46.84 21.736 46.088 21.736C45.336 21.736 44.696 21.728 44.168 21.712C43.656 21.696 43.168 21.672 42.704 21.64L42.776 18.496H49.064C49.64 18.496 50.08 18.44 50.384 18.328C50.704 18.216 50.928 18.016 51.056 17.728C51.184 17.424 51.248 17.008 51.248 16.48C51.248 15.936 51.184 15.52 51.056 15.232C50.928 14.944 50.704 14.744 50.384 14.632C50.08 14.52 49.64 14.464 49.064 14.464C47.48 14.464 46.136 14.472 45.032 14.488C43.944 14.504 43.2 14.528 42.8 14.56L42.44 11.44C43.144 11.36 43.808 11.304 44.432 11.272C45.056 11.24 45.736 11.224 46.472 11.224C47.224 11.208 48.12 11.2 49.16 11.2ZM46.856 11.44V28H42.44V11.44H46.856ZM64.7621 15.736C65.8341 15.736 66.7381 15.88 67.4741 16.168C68.2261 16.456 68.7941 16.936 69.1781 17.608C69.5621 18.28 69.7541 19.208 69.7541 20.392V28H66.2741L65.6741 25.432L65.3861 25V20.368C65.3701 19.872 65.2421 19.52 65.0021 19.312C64.7781 19.088 64.3621 18.976 63.7541 18.976C63.1301 18.976 62.3621 18.992 61.4501 19.024C60.5381 19.04 59.5861 19.08 58.5941 19.144L58.2101 16.336C58.8021 16.224 59.4901 16.128 60.2741 16.048C61.0741 15.952 61.8741 15.88 62.6741 15.832C63.4741 15.768 64.1701 15.736 64.7621 15.736ZM68.0261 20.68L68.0021 22.888H62.8901C62.5221 22.904 62.2501 23 62.0741 23.176C61.9141 23.336 61.8341 23.56 61.8341 23.848V24.304C61.8341 24.608 61.9301 24.848 62.1221 25.024C62.3301 25.184 62.6341 25.264 63.0341 25.264C63.4341 25.264 63.8581 25.176 64.3061 25C64.7541 24.824 65.1941 24.584 65.6261 24.28C66.0581 23.976 66.4341 23.648 66.7541 23.296V24.832C66.6261 25.088 66.4261 25.408 66.1541 25.792C65.8981 26.176 65.5621 26.568 65.1461 26.968C64.7301 27.352 64.2261 27.672 63.6341 27.928C63.0421 28.184 62.3541 28.312 61.5701 28.312C60.8501 28.312 60.1861 28.184 59.5781 27.928C58.9701 27.672 58.4821 27.296 58.1141 26.8C57.7621 26.304 57.5861 25.68 57.5861 24.928V23.728C57.5861 22.768 57.9221 22.024 58.5941 21.496C59.2821 20.952 60.2101 20.68 61.3781 20.68H68.0261ZM76.2114 15.736C77.0914 15.736 77.9234 15.864 78.7074 16.12C79.4914 16.376 80.1554 16.816 80.6994 17.44L80.3874 19.24C79.9714 19.112 79.5794 18.992 79.2114 18.88C78.8594 18.752 78.4114 18.688 77.8674 18.688C77.4674 18.688 77.1394 18.76 76.8834 18.904C76.6434 19.048 76.4594 19.352 76.3314 19.816C76.2194 20.264 76.1634 20.952 76.1634 21.88C76.1634 22.712 76.2194 23.336 76.3314 23.752C76.4434 24.152 76.6194 24.424 76.8594 24.568C77.1154 24.696 77.4274 24.76 77.7954 24.76C78.1794 24.76 78.4994 24.728 78.7554 24.664C79.0274 24.584 79.2834 24.48 79.5234 24.352C79.7634 24.208 80.0274 24.048 80.3154 23.872L80.6034 25.792C80.2194 26.496 79.6514 27.088 78.8994 27.568C78.1474 28.048 77.1714 28.288 75.9714 28.288C74.4194 28.288 73.3154 27.736 72.6594 26.632C72.0034 25.512 71.6754 23.936 71.6754 21.904C71.6754 20.288 71.8434 19.04 72.1794 18.16C72.5314 17.264 73.0434 16.64 73.7154 16.288C74.3874 15.92 75.2194 15.736 76.2114 15.736ZM84.2514 11.2V28H80.7954L80.3634 25.744L79.9074 25.432V17.776L80.0514 17.464C80.0034 16.968 79.9634 16.44 79.9314 15.88C79.9154 15.32 79.9074 14.768 79.9074 14.224V11.2H84.2514ZM91.1484 16.072V28H86.8044V16.072H91.1484ZM89.9004 10.696C90.7484 10.696 91.1724 11.128 91.1724 11.992V13.24C91.1724 14.104 90.7484 14.536 89.9004 14.536H88.0284C87.1804 14.536 86.7564 14.104 86.7564 13.24V11.992C86.7564 11.128 87.1804 10.696 88.0284 10.696H89.9004ZM100.317 15.736C101.389 15.736 102.293 15.88 103.029 16.168C103.781 16.456 104.349 16.936 104.733 17.608C105.117 18.28 105.309 19.208 105.309 20.392V28H101.829L101.229 25.432L100.941 25V20.368C100.925 19.872 100.797 19.52 100.557 19.312C100.333 19.088 99.9168 18.976 99.3088 18.976C98.6848 18.976 97.9168 18.992 97.0048 19.024C96.0928 19.04 95.1407 19.08 94.1488 19.144L93.7648 16.336C94.3568 16.224 95.0448 16.128 95.8288 16.048C96.6288 15.952 97.4288 15.88 98.2288 15.832C99.0288 15.768 99.7248 15.736 100.317 15.736ZM103.581 20.68L103.557 22.888H98.4448C98.0768 22.904 97.8048 23 97.6288 23.176C97.4688 23.336 97.3888 23.56 97.3888 23.848V24.304C97.3888 24.608 97.4848 24.848 97.6768 25.024C97.8848 25.184 98.1888 25.264 98.5888 25.264C98.9888 25.264 99.4128 25.176 99.8608 25C100.309 24.824 100.749 24.584 101.181 24.28C101.613 23.976 101.989 23.648 102.309 23.296V24.832C102.181 25.088 101.981 25.408 101.709 25.792C101.453 26.176 101.117 26.568 100.701 26.968C100.285 27.352 99.7808 27.672 99.1888 27.928C98.5968 28.184 97.9088 28.312 97.1248 28.312C96.4048 28.312 95.7408 28.184 95.1328 27.928C94.5248 27.672 94.0368 27.296 93.6688 26.8C93.3168 26.304 93.1408 25.68 93.1408 24.928V23.728C93.1408 22.768 93.4768 22.024 94.1488 21.496C94.8368 20.952 95.7648 20.68 96.9328 20.68H103.581ZM116.494 15.736C118.798 15.736 119.95 16.848 119.95 19.072V28H115.582V20.44C115.582 20.056 115.502 19.792 115.342 19.648C115.198 19.504 114.934 19.432 114.55 19.432C114.15 19.432 113.718 19.488 113.254 19.6C112.806 19.712 112.238 19.92 111.55 20.224L111.334 17.968C112.166 17.232 113.022 16.68 113.902 16.312C114.782 15.928 115.646 15.736 116.494 15.736ZM111.094 16.072L111.622 18.472L112.006 18.784V28H107.638V16.072H111.094ZM127.853 12.856V23.896C127.853 24.248 127.941 24.504 128.117 24.664C128.293 24.824 128.589 24.904 129.005 24.904H130.397L130.877 27.76C130.557 27.888 130.165 27.992 129.701 28.072C129.253 28.152 128.797 28.208 128.333 28.24C127.869 28.288 127.469 28.312 127.133 28.312C126.013 28.312 125.125 28.024 124.469 27.448C123.829 26.856 123.509 26.04 123.509 25L123.485 12.856H127.853ZM130.949 16.072V18.784H121.445V16.192L123.749 16.072H130.949ZM145.956 11.44C146.324 11.44 146.644 11.544 146.916 11.752C147.204 11.96 147.396 12.248 147.492 12.616L152.028 28H147.42L144.516 16.576C144.452 16.304 144.396 16.016 144.348 15.712C144.3 15.392 144.252 15.096 144.204 14.824H143.556C143.524 15.096 143.476 15.392 143.412 15.712C143.364 16.016 143.308 16.304 143.244 16.576L140.34 28H135.732L140.268 12.616C140.364 12.248 140.548 11.96 140.82 11.752C141.108 11.544 141.436 11.44 141.804 11.44H145.956ZM148.236 20.824V24.064H139.524V20.824H148.236ZM156.538 16.072L157.066 18.472L157.498 18.784V28H153.13V16.072H156.538ZM162.346 15.736L161.962 19.744H160.81C160.33 19.744 159.802 19.792 159.226 19.888C158.65 19.984 157.922 20.144 157.042 20.368L156.778 17.992C157.578 17.24 158.394 16.68 159.226 16.312C160.074 15.928 160.89 15.736 161.674 15.736H162.346ZM169.344 15.736C169.808 15.736 170.32 15.76 170.88 15.808C171.44 15.856 172 15.944 172.56 16.072C173.12 16.184 173.624 16.344 174.072 16.552L173.64 19.264C172.92 19.264 172.272 19.264 171.696 19.264C171.12 19.248 170.584 19.24 170.088 19.24C169.48 19.24 169 19.32 168.648 19.48C168.296 19.64 168.048 19.92 167.904 20.32C167.76 20.704 167.688 21.272 167.688 22.024C167.688 22.76 167.76 23.336 167.904 23.752C168.048 24.152 168.296 24.432 168.648 24.592C169 24.736 169.48 24.808 170.088 24.808C170.36 24.808 170.696 24.808 171.096 24.808C171.496 24.792 171.936 24.776 172.416 24.76C172.896 24.728 173.376 24.688 173.856 24.64L174.264 27.376C173.576 27.712 172.792 27.944 171.912 28.072C171.048 28.216 170.176 28.288 169.296 28.288C167.792 28.288 166.584 28.088 165.672 27.688C164.76 27.272 164.104 26.608 163.704 25.696C163.304 24.768 163.104 23.544 163.104 22.024C163.104 20.472 163.304 19.24 163.704 18.328C164.12 17.416 164.784 16.76 165.696 16.36C166.608 15.944 167.824 15.736 169.344 15.736ZM178.309 23.92C178.885 23.92 179.277 24.032 179.485 24.256C179.709 24.48 179.821 24.872 179.821 25.432V26.488C179.821 27.048 179.709 27.44 179.485 27.664C179.277 27.888 178.885 28 178.309 28H177.301C176.725 28 176.325 27.888 176.101 27.664C175.893 27.44 175.789 27.048 175.789 26.488V25.432C175.789 24.872 175.893 24.48 176.101 24.256C176.325 24.032 176.725 23.92 177.301 23.92H178.309Z" fill="white"/>
<defs>
<radialGradient id="paint0_radial_25_17" cx="0" cy="0" r="1" gradientUnits="userSpaceOnUse" gradientTransform="translate(0.60837 3.76084) rotate(49.0666) scale(41.9115)">
<stop offset="0.208333" stop-color="#2D1462"/>
<stop offset="0.463542" stop-color="#414070"/>
<stop offset="0.770833" stop-color="#280137"/>
</radialGradient>
<radialGradient id="paint1_radial_25_17" cx="0" cy="0" r="1" gradientUnits="userSpaceOnUse" gradientTransform="translate(0.60837 3.76084) rotate(49.0666) scale(41.9115)">
<stop offset="0.208333" stop-color="#2D1462"/>
<stop offset="0.463542" stop-color="#414070"/>
<stop offset="0.770833" stop-color="#280137"/>
</radialGradient>
<radialGradient id="paint2_radial_25_17" cx="0" cy="0" r="1" gradientUnits="userSpaceOnUse" gradientTransform="translate(0.60837 3.76084) rotate(49.0666) scale(41.9115)">
<stop offset="0.208333" stop-color="#2D1462"/>
<stop offset="0.463542" stop-color="#414070"/>
<stop offset="0.770833" stop-color="#280137"/>
</radialGradient>
</defs>
</svg>
